<?xml version="1.0" encoding="UTF-8" standalone="no"?><!DOCTYPE svg PUBLIC "-//W3C//DTD SVG 1.1//EN" "http://www.w3.org/Graphics/SVG/1.1/DTD/svg11.dtd"><svg width="100%" height="100%" viewBox="0 0 1536 1536" version="1.1" xmlns="http://www.w3.org/2000/svg" xmlns:xlink="http://www.w3.org/1999/xlink" xml:space="preserve" xmlns:serif="http://www.serif.com/" style="fill-rule:evenodd;clip-rule:evenodd;stroke-linejoin:round;stroke-miterlimit:1.41421;"><rect id="Main-Display" serif:id="Main Display" x="0" y="0" width="1536" height="1536" style="fill:none;"/><g id="Main-Display1" serif:id="Main Display"><g><path d="M1318.66,432.956c22.047,193.823 -275.064,443.356 -442.002,359.547c-256.175,-128.61 -655.375,22.82 -662.672,-32.002c-24.137,-181.357 203.23,-535.682 683.067,-597.993c185.239,-24.055 399.559,76.624 421.607,270.448Z"/><path d="M633.764,233.644c-98.361,278.289 -130.955,385.558 160.422,527.678l-0.002,0c-251.221,-68.625 -573.646,48.397 -580.197,-0.821c-10.461,-78.601 26.32,-189.692 110.423,-295.419c51.768,-54.239 110.19,-105.124 166.326,-153.042c42.749,-29.128 90.424,-55.683 143.028,-78.396Z" style="fill:#f8cb00;"/><path d="M545.066,278.02c-65.992,216.692 -112.917,345.408 139.666,464.357l-0.001,0c-226.43,-19.979 -465.117,60.401 -470.744,18.124c-17.181,-129.089 93.063,-345.811 331.079,-482.481Z" style="fill:#f85600;"/><path d="M885.641,244.727c180.686,-2.115 60.774,39.719 281.942,212.598c102.29,79.956 -133.027,259.527 -239.552,247.502c-119.191,-13.454 -275.373,-142.204 -278.033,-207.082c-5.319,-129.722 54.957,-250.903 235.643,-253.018Z" style="fill:#fff;"/><path d="M816.591,330.462c120.082,58.737 168.328,18.94 166.095,53.92c-3.314,51.926 -52.354,-14.223 -161.516,73.014c-27.613,22.066 -65.028,-26.13 -66.292,-61.159c-1.263,-35.028 29.961,-81.307 61.713,-65.775Z"/></g><g><path d="M1337.29,1021.62c0,-70.63 -57.342,-127.973 -127.972,-127.973l-891.592,0c-70.63,0 -127.973,57.343 -127.973,127.973c0,0 0.553,-1.359 54.377,318.291c7.311,43.418 54.512,65.628 73.596,65.628l891.592,0c1.706,0 50.016,-9.463 62.345,-73.128c59.428,-306.869 65.627,-310.791 65.627,-310.791Z" style="fill:url(#_Linear1);"/><g><circle cx="381.264" cy="1058.65" r="65.627" style="fill:#450017;"/><circle cx="476.828" cy="1240.54" r="65.627" style="fill:#450017;"/><circle cx="572.392" cy="1058.65" r="65.627" style="fill:#450017;"/><circle cx="667.955" cy="1240.54" r="65.627" style="fill:#450017;"/><circle cx="763.519" cy="1058.65" r="65.627" style="fill:#450017;"/><circle cx="859.082" cy="1240.54" r="65.627" style="fill:#450017;"/><circle cx="954.646" cy="1058.65" r="65.627" style="fill:#450017;"/><circle cx="1050.21" cy="1240.54" r="65.627" style="fill:#450017;"/><circle cx="1145.77" cy="1058.65" r="65.627" style="fill:#450017;"/></g></g></g><defs><linearGradient id="_Linear1" x1="0" y1="0" x2="1" y2="0" gradientUnits="userSpaceOnUse" gradientTransform="matrix(1147.54,0,0,511.892,189.75,1149.59)"><stop offset="0" style="stop-color:#fc0054;stop-opacity:1"/><stop offset="1" style="stop-color:#ff6201;stop-opacity:1"/></linearGradient></defs></svg>